<svg id="Capa_1" enable-background="new 0 0 512 512" height="512" viewBox="0 0 512 512" width="512" xmlns="http://www.w3.org/2000/svg"><g><path d="m256 7.5v497c137.243 0 248.5-111.257 248.5-248.5s-111.257-248.5-248.5-248.5z" fill="#ffe7b5"/><path d="m474.5 256c0-137.243-97.826-248.5-218.5-248.5-137.243 0-248.5 111.257-248.5 248.5 0 67.956 27.288 129.53 71.491 174.392-8.691 17.28-23.448 30.983-41.491 38.287 9.265 3.751 19.39 5.821 30 5.821 17.237 0 33.191-5.462 46.25-14.735 40.3 28.186 89.339 44.735 142.25 44.735 120.674 0 218.5-111.257 218.5-248.5z" fill="#fff7e6"/><path d="m166 236.503-41.315-6.223-18.685-37.37-15 72.911 15 21.965 37.082 19.251-6.849-41.216z" fill="#ff974f"/><path d="m87.315 230.28-41.315 6.223 29.767 29.318-6.849 41.216 37.082-19.251v-94.876z" fill="#ffb35c"/><path d="m466 236.503-41.315-6.223-18.685-37.37-15 72.911 15 21.965 37.082 19.251-6.849-41.216z" fill="#ff974f"/><path d="m387.315 230.28-41.315 6.223 29.767 29.318-6.849 41.216 37.082-19.251v-94.876z" fill="#ffb35c"/><path d="m316 236.503-41.315-6.223-18.685-37.37-15 72.911 15 21.965 37.082 19.251-6.849-41.216z" fill="#ff974f"/><path d="m237.315 230.28-41.315 6.223 29.767 29.318-6.849 41.216 37.082-19.251v-94.876z" fill="#ffb35c"/><path d="m437.02 74.98c-48.353-48.351-112.64-74.98-181.02-74.98-62.63 0-122.916 22.87-169.754 64.396-3.099 2.748-3.384 7.488-.636 10.587 2.747 3.1 7.487 3.385 10.587.636 44.092-39.09 100.844-60.619 159.803-60.619 132.888 0 241 108.112 241 241s-108.112 241-241 241c-49.671 0-97.374-15.001-137.951-43.381-2.597-1.816-6.056-1.805-8.641.031-12.3 8.734-26.791 13.35-41.908 13.35-3.371 0-6.708-.228-10.003-.683 11.864-8.27 21.588-19.422 28.194-32.556 1.444-2.872.898-6.344-1.358-8.634-44.71-45.377-69.333-105.441-69.333-169.127 0-58.959 21.529-115.712 60.621-159.803 2.748-3.099 2.463-7.839-.636-10.587-3.1-2.749-7.84-2.463-10.587.636-41.528 46.837-64.398 107.124-64.398 169.754 0 65.785 24.729 127.927 69.763 175.627-8.095 13.566-20.386 24.153-35.077 30.1-2.832 1.146-4.686 3.896-4.686 6.952 0 3.055 1.854 5.805 4.686 6.952 10.439 4.226 21.479 6.369 32.814 6.369 16.473 0 32.333-4.543 46.19-13.187 42.177 28.271 91.267 43.187 142.31 43.187 68.38 0 132.667-26.629 181.02-74.98 48.351-48.353 74.98-112.64 74.98-181.02s-26.629-132.667-74.98-181.02z"/><path d="m173.133 234.185c-.878-2.702-3.207-4.675-6.016-5.099l-37.465-5.642-16.944-33.888c-1.27-2.541-3.867-4.146-6.708-4.146s-5.438 1.605-6.708 4.146l-16.944 33.888-37.465 5.642c-2.81.423-5.138 2.397-6.016 5.099s-.154 5.668 1.87 7.661l26.993 26.586-6.211 37.375c-.466 2.802.692 5.627 2.99 7.297 2.297 1.669 5.34 1.897 7.864.589l33.627-17.456 33.626 17.457c1.088.565 2.273.843 3.455.843 1.556 0 3.103-.483 4.409-1.433 2.298-1.669 3.456-4.495 2.99-7.297l-6.211-37.375 26.993-26.586c2.025-1.993 2.749-4.959 1.871-7.661zm-42.163 26.293c-1.739 1.713-2.536 4.165-2.136 6.573l4.39 26.419-23.769-12.339c-1.083-.562-2.27-.843-3.456-.843s-2.373.281-3.456.843l-23.769 12.339 4.39-26.419c.4-2.408-.396-4.86-2.136-6.573l-19.08-18.792 26.482-3.988c2.414-.364 4.5-1.879 5.591-4.063l11.979-23.954 11.977 23.954c1.091 2.184 3.177 3.699 5.591 4.063l26.482 3.988z"/><path d="m473.133 234.185c-.878-2.702-3.207-4.675-6.016-5.099l-37.465-5.642-16.944-33.888c-1.27-2.541-3.867-4.146-6.708-4.146s-5.438 1.605-6.708 4.146l-16.944 33.888-37.465 5.642c-2.81.423-5.138 2.397-6.016 5.099s-.154 5.668 1.87 7.661l26.993 26.586-6.211 37.375c-.466 2.802.692 5.627 2.99 7.297 2.297 1.669 5.341 1.897 7.864.589l33.627-17.456 33.626 17.457c1.088.565 2.273.843 3.455.843 1.556 0 3.103-.483 4.409-1.433 2.298-1.669 3.456-4.495 2.99-7.297l-6.211-37.375 26.993-26.586c2.025-1.993 2.749-4.959 1.871-7.661zm-42.163 26.293c-1.739 1.713-2.536 4.165-2.136 6.573l4.39 26.419-23.769-12.339c-1.083-.562-2.27-.843-3.456-.843s-2.373.281-3.456.843l-23.769 12.339 4.39-26.419c.4-2.408-.396-4.86-2.136-6.573l-19.08-18.792 26.482-3.988c2.414-.364 4.5-1.879 5.591-4.063l11.979-23.954 11.977 23.954c1.091 2.184 3.177 3.699 5.591 4.063l26.482 3.988z"/><path d="m323.133 234.185c-.878-2.702-3.207-4.675-6.016-5.099l-37.465-5.642-16.944-33.888c-1.27-2.541-3.867-4.146-6.708-4.146s-5.438 1.605-6.708 4.146l-16.944 33.888-37.465 5.642c-2.81.423-5.138 2.397-6.016 5.099s-.154 5.668 1.87 7.661l26.993 26.586-6.211 37.375c-.466 2.802.692 5.627 2.99 7.297 2.297 1.669 5.34 1.897 7.864.589l33.627-17.456 33.626 17.457c1.088.565 2.273.843 3.455.843 1.556 0 3.103-.483 4.409-1.433 2.298-1.669 3.456-4.495 2.99-7.297l-6.211-37.375 26.993-26.586c2.025-1.993 2.749-4.959 1.871-7.661zm-42.163 26.293c-1.739 1.713-2.536 4.165-2.136 6.573l4.39 26.419-23.769-12.339c-1.083-.562-2.27-.843-3.456-.843s-2.373.281-3.456.843l-23.769 12.339 4.39-26.419c.4-2.408-.396-4.86-2.136-6.573l-19.08-18.792 26.482-3.988c2.414-.364 4.5-1.879 5.591-4.063l11.979-23.954 11.977 23.954c1.091 2.184 3.177 3.699 5.591 4.063l26.482 3.988z"/></g></svg>