<svg id="Capa_1" enable-background="new 0 0 512 512" height="512" viewBox="0 0 512 512" width="512" xmlns="http://www.w3.org/2000/svg"><g><g><g><g><g><g><g><g><g><g><g><g><g><path d="m300.631 277.247v-64.128h-89.262v64.128c0 10.91-7.564 20.306-18.125 22.734 0 0 2.368 52.724 62.756 52.724s66.576-51.952 66.576-51.952l-3.009-.579c-10.992-2.115-18.936-11.734-18.936-22.927z" fill="#ffddce"/><path d="m422.353 504.5c18.666 0 33.798-15.132 33.798-33.798v-30.356c0-66.109-46.917-122.916-111.834-135.409l-21.74-4.184c-16.039 17.237-66.577 43.391-66.577 43.391s-63.292-44.023-63.567-43.97l-24.749 4.763c-64.917 12.493-111.834 69.301-111.834 135.409v30.356c0 18.666 15.132 33.798 33.798 33.798z" fill="#e07f84"/><g><path d="m344.316 304.937-21.74-4.184c-7.636 8.206-23.091 18.433-37.19 26.897 61.763 14.759 105.785 70.068 105.785 134.105v42.745h31.181c18.666 0 33.798-15.132 33.798-33.798v-30.356c.001-66.109-46.917-122.916-111.834-135.409z" fill="#db636e"/></g></g></g></g></g></g></g></g><g><path d="m182.596 293.307-21.138 12.962 48.813 48.888c4.653 4.53 11.978 4.809 16.962.646l28.767-24.032-60.478-38.366c-3.937-2.497-8.952-2.535-12.926-.098z" fill="#d84a54"/><g><path d="m329.404 293.307 21.138 12.962-48.813 48.888c-4.653 4.53-11.978 4.809-16.962.646l-28.767-24.032 60.478-38.366c3.937-2.497 8.952-2.535 12.926-.098z" fill="#d84a54"/><path d="m256 331.771-28.327 23.658 14.433 24.79h13.894 13.894l14.433-24.79z" fill="#d1ecf9"/><path d="m291.922 504.5-22.028-124.281h-13.894-13.894l-22.028 124.281z" fill="#f2f9ff"/></g></g></g></g><path d="m344.27 420.252h38.907c7.52 0 13.617-6.096 13.617-13.617v-8.173c0-7.52-6.096-13.617-13.617-13.617h-38.907c-7.52 0-13.617 6.096-13.617 13.617v8.173c0 7.521 6.096 13.617 13.617 13.617z" fill="#ffe07d"/><path d="m396.793 406.636v-8.173c0-7.52-6.096-13.617-13.617-13.617h-15.449c7.274 10.816 13.036 22.692 17.029 35.307 6.775-.784 12.037-6.532 12.037-13.517z" fill="#ffc250"/></g><g><path d="m352.11 135.561-6.141.026-.103-24.748c-.216-51.851-43.004-87.773-90.444-88.107-47.233.735-89.923 36.828-89.707 88.876l.073 17.448.03 7.3-6.141.026c-9.004.038-16.272 7.457-16.234 16.571l.076 18.286c.038 9.113 7.368 16.47 16.371 16.432l6.166-.026c.608 23.946 10.646 46.954 28.673 62.532 14.513 12.541 34.886 23.455 61.738 23.644 26.85-.418 47.131-11.505 61.539-24.17 17.897-15.731 27.743-38.824 28.151-62.775l6.166-.026c9.004-.038 16.272-7.457 16.234-16.571l-.076-18.286c-.038-9.114-7.368-16.47-16.371-16.432z" fill="#ffddce"/><path d="m368.481 151.993c-.038-9.113-7.368-16.47-16.371-16.432l-6.141.026-.103-24.748c-.216-51.851-43.004-87.774-90.444-88.107-6.992.109-13.883.998-20.552 2.594 38.208 9.128 68.914 41.609 69.097 85.513l.292 76.036c-.408 23.95-10.255 47.043-28.151 62.775-10.469 9.202-24.042 17.568-40.98 21.616 6.6 1.578 13.708 2.5 21.34 2.554 26.85-.418 47.131-11.505 61.539-24.17 17.897-15.731 27.743-38.824 28.151-62.775l6.166-.026c9.004-.038 16.272-7.457 16.234-16.571z" fill="#ffcbbe"/><g><g><path d="m346.098 120.659v68.057h18.074c10.135 0 18.351-8.216 18.351-18.351v-31.355c0-10.135-8.216-18.351-18.351-18.351z" fill="#9bc4f9"/></g><g><path d="m165.902 120.659v68.057h-18.074c-10.135 0-18.351-8.216-18.351-18.351v-31.355c0-10.135 8.216-18.351 18.351-18.351z" fill="#9bc4f9"/></g></g><path d="m318.302 238.885h-20.718c-7.904 0-14.312-6.408-14.312-14.312 0-7.904 6.408-14.312 14.312-14.312h20.718c7.904 0 14.312 6.408 14.312 14.312.001 7.904-6.407 14.312-14.312 14.312z" fill="#db636e"/><path d="m363.092 81.559c-1.474-1.495-2.302-3.433-2.293-5.452.052-11.549-7.56-21.462-18.384-25.558-2.903-1.098-4.981-3.417-5.765-6.213-2.43-8.668-10.509-15.184-20.336-15.927-2.306-.174-4.471-1.324-5.821-3.202-4.129-5.742-11.147-9.526-19.124-9.526-2.17 0-4.267.285-6.254.813-3.272.869-6.735.002-9.061-2.287-6.71-6.604-14.021-6.707-20.054-6.707h-.001c-6.745 0-13.519.275-20.054 6.707-2.326 2.289-5.789 3.156-9.061 2.287-1.987-.528-4.084-.813-6.254-.813-7.977 0-14.995 3.784-19.124 9.526-1.35 1.878-3.515 3.027-5.821 3.202-9.827.743-17.907 7.259-20.336 15.927-.784 2.797-2.862 5.115-5.765 6.213-10.824 4.095-18.436 14.008-18.384 25.558.009 2.019-.819 3.957-2.293 5.452-3.766 3.819-6.065 8.912-6.065 14.506v22.962c0 6.41 5.121 11.645 11.53 11.786 6.408.141 11.53 5.376 11.53 11.786v12.415h12.311c8.086 0 14.636-6.563 14.62-14.649l-.077-38.962c0-21.94 18.106-27.34 36.294-21.962 16.207 4.793 37.659 4.803 53.9 0 17.975-5.315 36.294-.157 36.294 21.962l-.077 38.962c-.016 8.086 6.534 14.649 14.62 14.649h12.311v-12.415c0-6.41 5.121-11.645 11.53-11.786 6.408-.141 11.53-5.376 11.53-11.786v-22.962c-.002-5.594-2.301-10.688-6.066-14.506z" fill="#756e78"/><path d="m363.092 81.559c-1.474-1.495-2.302-3.433-2.293-5.452.052-11.549-7.56-21.462-18.384-25.558-2.903-1.099-4.981-3.417-5.765-6.213-2.43-8.668-10.509-15.184-20.336-15.927-2.306-.174-4.471-1.324-5.821-3.202-4.129-5.742-11.147-9.526-19.124-9.526-2.17 0-4.267.285-6.254.813-3.272.869-6.735.002-9.061-2.287-6.71-6.604-14.021-6.707-20.054-6.707h-.001c-6.745 0-13.519.275-20.054 6.707-2.326 2.289-5.789 3.156-9.061 2.287-1.987-.528-4.084-.813-6.254-.813-7.155 0-13.533 3.051-17.752 7.823 3.511-.454 7.064-.716 10.644-.771 36.434.256 70.121 21.506 83.89 54.839 12.171.66 21.831 7.773 21.831 23.833l-.077 38.962c-.016 8.086 6.534 14.649 14.62 14.649h12.311v-12.415c0-6.41 5.121-11.645 11.53-11.786 6.408-.141 11.53-5.376 11.53-11.786v-22.964c-.001-5.594-2.3-10.688-6.065-14.506z" fill="#665e66"/></g></g></g><g><g><path d="m456.15 456.887c-4.143 0-7.5 3.358-7.5 7.5v6.315c0 14.5-11.797 26.298-26.298 26.298h-34.032v-35.586c0-4.142-3.357-7.5-7.5-7.5s-7.5 3.358-7.5 7.5v35.586h-75.111l-20.451-115.383 9.43-16.195c7.273 2.154 14.703.045 19.774-4.892.025-.025.051-.05.076-.075l45.76-45.831c25.286 6.918 47.585 21.067 64.685 41.127 17.967 21.076 28.605 46.773 30.766 74.314.308 3.93 3.592 6.914 7.469 6.914.196 0 .395-.008.595-.023 4.129-.324 7.214-3.934 6.89-8.063-2.408-30.716-14.271-59.374-34.304-82.873-19.784-23.208-45.813-39.322-75.329-46.694l-20.245-12.413c-6.369-3.905-14.557-3.842-20.863.16l-.588.373c-5.567-6.576-3.162-13.29-3.742-21.125 5.126-3.18 10.072-6.857 14.826-11.036 7.102-6.242 13.115-13.645 17.889-21.857h16.413c18.065 0 32.763-14.697 32.763-32.763v-61.654c0-9.544-5.275-18.141-13.366-22.611v-20.336c0-7.372-2.921-14.394-8.224-19.772-.001 0-.001 0-.001 0-.096-.097-.132-.171-.133-.152.064-14.443-9.054-27.242-23.23-32.606-.616-.233-1.042-.667-1.197-1.223-3.313-11.818-14.16-20.411-26.99-21.381-.162-.012-.276-.08-.299-.102-7.486-10.411-21.017-14.873-33.394-11.582-.712.187-1.446.037-1.874-.384-9.004-8.862-19.215-8.862-25.316-8.862-6.495 0-16.311 0-25.315 8.862-.429.422-1.165.571-1.873.384-12.475-3.318-25.962 1.247-33.389 11.575-.027.029-.141.096-.302.108-12.832.97-23.679 9.562-26.992 21.38-.156.556-.581.99-1.198 1.224-14.177 5.364-23.295 18.163-23.226 32.568-.006.02-.042.094-.137.19-5.303 5.378-8.224 12.4-8.224 19.772v20.335c-8.091 4.47-13.365 13.067-13.365 22.61v31.355c0 14.254 11.597 25.851 25.851 25.851h11.306c2.603 23.409 13.527 44.803 30.692 59.636 4.516 3.902 9.204 7.341 14.043 10.353-.587 7.966 1.835 14.659-3.747 21.238l-.583-.37c-6.307-4.001-14.497-4.064-20.865-.159l-20.215 12.396c-18.269 4.559-35.231 12.482-50.427 23.58-3.345 2.443-4.076 7.135-1.633 10.48 2.448 3.351 7.141 4.073 10.48 1.633 12.817-9.361 27.036-16.202 42.316-20.385l45.767 45.837c.025.025.05.05.076.075 5.08 4.945 12.511 7.043 19.774 4.892l9.429 16.195-20.452 115.385h-75.111v-35.586c0-4.142-3.358-7.5-7.5-7.5s-7.5 3.358-7.5 7.5v35.586h-34.032c-14.5 0-26.298-11.797-26.298-26.298v-30.356c0-30.01 10.464-59.329 29.463-82.556 2.623-3.206 2.149-7.931-1.057-10.554-3.207-2.623-7.932-2.15-10.554 1.057-21.186 25.899-32.853 58.59-32.853 92.053v30.356c.002 22.772 18.528 41.298 41.299 41.298h332.705c22.771 0 41.298-18.526 41.298-41.298v-6.315c0-4.142-3.357-7.5-7.5-7.5zm-209.732-84.169-9.076-15.589 18.658-15.585 18.658 15.586-9.076 15.589h-19.164zm79.066-73.017 13.036 7.993-42.052 42.117c-1.906 1.828-4.863 1.931-6.893.235l-.242-.202c-.008-.007-.018-.014-.026-.022l-20.616-17.221 51.804-32.863c1.51-.957 3.467-.97 4.989-.037zm46.505-168.186c1.892 1.97 3.033 4.629 3.033 7.495v31.355c0 5.983-4.867 10.851-10.851 10.851h-10.573v-38.636c.011-2.305 1.886-4.218 4.193-4.269 5.663-.125 10.737-2.756 14.198-6.796zm-53.686 99.87h-20.719c-3.757 0-6.812-3.056-6.812-6.812s3.056-6.812 6.812-6.812h20.719c3.756 0 6.812 3.056 6.812 6.812s-3.056 6.812-6.812 6.812zm38.957-12.959h-9.407c2.574-7.084 4.329-14.542 5.185-22.211h11.134c3.874 0 7.549-.862 10.851-2.396v6.844c-.001 9.795-7.969 17.763-17.763 17.763zm-206.917-122.362c0-3.405 1.387-6.686 3.905-9.24 2.888-2.93 4.47-6.748 4.452-10.752-.037-8.118 5.277-15.383 13.538-18.509 5.113-1.934 8.879-6.018 10.333-11.204 1.617-5.768 7.114-9.976 13.681-10.473 4.578-.347 8.713-2.644 11.343-6.301 3.837-5.335 10.963-7.544 17.364-5.843 5.824 1.549 12.049-.059 16.247-4.19 4.315-4.245 8.467-4.552 14.794-4.552 6.142 0 10.489.317 14.793 4.553 4.199 4.131 10.422 5.738 16.248 4.189 6.385-1.696 13.518.495 17.362 5.842 2.63 3.658 6.764 5.955 11.345 6.302 6.565.497 12.063 4.705 13.68 10.473 1.454 5.186 5.221 9.27 10.333 11.203 8.261 3.125 13.574 10.391 13.538 18.51-.018 4.004 1.563 7.822 4.452 10.751 2.519 2.554 3.905 5.835 3.905 9.24v22.962c0 2.313-1.882 4.237-4.194 4.288-10.402.229-18.865 8.88-18.865 19.285v4.915h-4.811c-3.94 0-7.128-3.192-7.12-7.134l.077-38.977c0-25.705-21.203-36.464-45.921-29.154-14.848 4.391-34.797 4.392-49.646 0-24.671-7.294-45.92 3.408-45.92 29.169l.077 38.962c.008 3.941-3.179 7.134-7.12 7.134h-4.812c-.012-5.02.029-5.02-.039-5.683-.407-10.057-8.683-18.293-18.826-18.517-2.312-.051-4.194-1.975-4.194-4.288v-22.961zm-13.365 74.301v-31.355c0-2.866 1.141-5.524 3.033-7.494 3.461 4.04 8.535 6.671 14.197 6.796 2.313.051 4.195 1.975 4.195 4.289v38.616h-10.574c-5.984-.002-10.851-4.869-10.851-10.852zm36.424 15.795v-23.645h4.812c12.243 0 22.144-9.92 22.12-22.164l-.077-38.947c0-15.655 11.991-19.108 26.667-14.771 17.664 5.224 40.492 5.224 58.154 0 14.593-4.317 26.667-.951 26.667 14.755l-.077 38.961c-.024 12.244 9.876 22.165 22.12 22.165h4.812v25.608c-.257 7.653-1.581 15.111-3.831 22.168-4.002-4.608-9.897-7.53-16.465-7.53h-20.719c-12.027 0-21.812 9.785-21.812 21.812s9.785 21.812 21.812 21.812h12.667c-33.518 27.38-78.01 26.294-110.617-1.883-27.074-23.393-25.831-56.339-26.233-58.341zm45.467 87.734c23.239 9.54 49.376 10.234 74.262.071.215 1.626-1.374 11.549 6.014 21.555l-43.145 27.37-43.148-27.373c7.383-9.99 5.804-20.004 6.017-21.623zm-3.338 75.917-42.052-42.117 13.037-7.994c1.522-.933 3.48-.918 4.987.038l51.804 32.863-20.605 17.212c-.013.011-.027.021-.039.033l-.239.199c-2.029 1.698-4.986 1.593-6.893-.234zm32.863 37.907h15.213l19.369 109.282h-53.952z"/><path d="m344.27 377.346c-11.645 0-21.117 9.473-21.117 21.117v8.173c0 11.644 9.473 21.117 21.117 21.117h38.907c11.644 0 21.116-9.473 21.116-21.117v-8.173c0-11.644-9.473-21.117-21.116-21.117zm45.023 21.117v8.173c0 3.373-2.744 6.117-6.116 6.117h-38.907c-3.373 0-6.117-2.744-6.117-6.117v-8.173c0-3.373 2.744-6.117 6.117-6.117h38.907c3.372 0 6.116 2.744 6.116 6.117z"/></g></g></g></svg>